<svg width="145" height="48" viewBox="0 0 145 48" fill="none" xmlns="http://www.w3.org/2000/svg">
<path d="M29.5 18.9279H19.5V9H9.5V19.1442H19.5V28.8558H9.5V39H19.5V29.0721H29.5V39H39.5V28.8558H29.5V19.1442H39.5V9H29.5V18.9279Z" fill="#0C0407"/>
<path d="M50.7642 31V16.4545H60.5653V18.9901H53.8395V22.456H60.0611V24.9915H53.8395V28.4645H60.5938V31H50.7642ZM65.379 16.4545V31H62.3535V16.4545H65.379ZM72.1743 31.2131C71.0521 31.2131 70.0862 30.9858 69.2766 30.5312C68.4716 30.072 67.8514 29.4233 67.4158 28.5852C66.9802 27.7424 66.7624 26.7457 66.7624 25.5952C66.7624 24.473 66.9802 23.4882 67.4158 22.6406C67.8514 21.7931 68.4645 21.1326 69.2553 20.6591C70.0507 20.1856 70.9835 19.9489 72.0536 19.9489C72.7732 19.9489 73.4432 20.0649 74.0635 20.2969C74.6885 20.5241 75.233 20.8674 75.697 21.3267C76.1658 21.786 76.5304 22.3636 76.7908 23.0597C77.0512 23.7509 77.1814 24.5606 77.1814 25.4886V26.3196H67.9697V24.4446H74.3334C74.3334 24.009 74.2387 23.6231 74.0493 23.2869C73.8599 22.9508 73.5971 22.688 73.2609 22.4986C72.9295 22.3045 72.5436 22.2074 72.1033 22.2074C71.644 22.2074 71.2368 22.3139 70.8817 22.527C70.5313 22.7353 70.2567 23.017 70.0578 23.3722C69.8589 23.7225 69.7571 24.1132 69.7524 24.544V26.3267C69.7524 26.8665 69.8518 27.3329 70.0507 27.7259C70.2543 28.1188 70.5408 28.4219 70.9101 28.6349C71.2794 28.848 71.7174 28.9545 72.224 28.9545C72.5602 28.9545 72.8679 28.9072 73.1473 28.8125C73.4267 28.7178 73.6658 28.5758 73.8646 28.3864C74.0635 28.197 74.215 27.965 74.3192 27.6903L77.1175 27.875C76.9754 28.5473 76.6842 29.1345 76.2439 29.6364C75.8083 30.1335 75.2448 30.5218 74.5536 30.8011C73.867 31.0758 73.0739 31.2131 72.1743 31.2131ZM83.4706 35.3182C82.4905 35.3182 81.65 35.1832 80.9493 34.9134C80.2533 34.6482 79.6993 34.286 79.2874 33.8267C78.8754 33.3674 78.6079 32.8513 78.4848 32.2784L81.2831 31.902C81.3683 32.1198 81.5033 32.3234 81.6879 32.5128C81.8726 32.7022 82.1164 32.8537 82.4195 32.9673C82.7272 33.0857 83.1013 33.1449 83.5416 33.1449C84.1998 33.1449 84.7419 32.9839 85.168 32.6619C85.5989 32.3447 85.8143 31.812 85.8143 31.0639V29.0682H85.6865C85.5539 29.3712 85.3551 29.6577 85.0899 29.9276C84.8248 30.1974 84.4839 30.4176 84.0672 30.5881C83.6505 30.7585 83.1534 30.8438 82.5757 30.8438C81.7566 30.8438 81.0108 30.6544 80.3385 30.2756C79.6709 29.892 79.1382 29.3073 78.7405 28.5213C78.3475 27.7306 78.151 26.7315 78.151 25.5241C78.151 24.2884 78.3522 23.2562 78.7547 22.4276C79.1572 21.599 79.6922 20.9787 80.3598 20.5668C81.0322 20.1548 81.7684 19.9489 82.5686 19.9489C83.1794 19.9489 83.6908 20.053 84.1027 20.2614C84.5146 20.465 84.8461 20.7206 85.097 21.0284C85.3527 21.3314 85.5492 21.6297 85.6865 21.9233H85.8001V20.0909H88.8044V31.1065C88.8044 32.0346 88.5771 32.8111 88.1226 33.4361C87.668 34.0611 87.0383 34.5298 86.2334 34.8423C85.4332 35.1596 84.5123 35.3182 83.4706 35.3182ZM83.5345 28.571C84.0222 28.571 84.4341 28.4503 84.7703 28.2088C85.1112 27.9626 85.3716 27.6122 85.5516 27.1577C85.7362 26.6984 85.8286 26.1491 85.8286 25.5099C85.8286 24.8707 85.7386 24.3168 85.5587 23.848C85.3787 23.3745 85.1183 23.0076 84.7774 22.7472C84.4365 22.4867 84.0222 22.3565 83.5345 22.3565C83.0374 22.3565 82.6183 22.4915 82.2774 22.7614C81.9365 23.0265 81.6785 23.3958 81.5033 23.8693C81.3281 24.3428 81.2405 24.8897 81.2405 25.5099C81.2405 26.1397 81.3281 26.6842 81.5033 27.1435C81.6832 27.598 81.9412 27.9508 82.2774 28.2017C82.6183 28.4479 83.0374 28.571 83.5345 28.571ZM93.7229 31.206C93.0268 31.206 92.4066 31.0852 91.8621 30.8438C91.3176 30.5975 90.8867 30.2353 90.5695 29.7571C90.257 29.2741 90.1007 28.6728 90.1007 27.9531C90.1007 27.3471 90.212 26.8381 90.4345 26.4261C90.6571 26.0142 90.9601 25.6828 91.3436 25.4318C91.7271 25.1809 92.1627 24.9915 92.6504 24.8636C93.1428 24.7358 93.6589 24.6458 94.1987 24.5938C94.8332 24.5275 95.3446 24.4659 95.7328 24.4091C96.1211 24.3475 96.4028 24.2576 96.578 24.1392C96.7532 24.0208 96.8408 23.8456 96.8408 23.6136V23.571C96.8408 23.1212 96.6987 22.7732 96.4146 22.527C96.1353 22.2808 95.7375 22.1577 95.2214 22.1577C94.6769 22.1577 94.2437 22.2784 93.9217 22.5199C93.5998 22.7566 93.3867 23.0549 93.2825 23.4148L90.4842 23.1875C90.6263 22.5246 90.9056 21.9517 91.3223 21.4688C91.739 20.9811 92.2764 20.607 92.9345 20.3466C93.5974 20.0814 94.3644 19.9489 95.2357 19.9489C95.8417 19.9489 96.4217 20.0199 96.9757 20.1619C97.5344 20.304 98.0292 20.5241 98.4601 20.8224C98.8957 21.1207 99.239 21.5043 99.4899 21.973C99.7409 22.437 99.8663 22.9934 99.8663 23.642V31H96.997V29.4872H96.9118C96.7366 29.8281 96.5022 30.1288 96.2087 30.3892C95.9151 30.6449 95.5624 30.8461 95.1504 30.9929C94.7385 31.1349 94.2626 31.206 93.7229 31.206ZM94.5893 29.1179C95.0344 29.1179 95.4274 29.0303 95.7683 28.8551C96.1092 28.6752 96.3768 28.4337 96.5709 28.1307C96.765 27.8277 96.8621 27.4844 96.8621 27.1009V25.9432C96.7674 26.0047 96.6372 26.0616 96.4714 26.1136C96.3105 26.161 96.1282 26.206 95.9246 26.2486C95.721 26.2865 95.5174 26.322 95.3138 26.3551C95.1102 26.3835 94.9255 26.4096 94.7598 26.4332C94.4047 26.4853 94.0946 26.5682 93.8294 26.6818C93.5643 26.7955 93.3583 26.9493 93.2115 27.1435C93.0647 27.3329 92.9913 27.5696 92.9913 27.8537C92.9913 28.2656 93.1405 28.5805 93.4388 28.7983C93.7418 29.0114 94.1253 29.1179 94.5893 29.1179ZM104.639 24.6932V31H101.614V20.0909H104.497V22.0156H104.625C104.866 21.3812 105.271 20.8793 105.839 20.5099C106.408 20.1359 107.097 19.9489 107.906 19.9489C108.664 19.9489 109.324 20.1146 109.888 20.446C110.451 20.7775 110.889 21.2509 111.202 21.8665C111.514 22.4773 111.67 23.2064 111.67 24.054V31H108.645V24.5938C108.65 23.9261 108.479 23.4053 108.134 23.0312C107.788 22.6525 107.312 22.4631 106.706 22.4631C106.299 22.4631 105.939 22.5507 105.626 22.7259C105.319 22.901 105.077 23.1567 104.902 23.4929C104.732 23.8243 104.644 24.2244 104.639 24.6932ZM113.398 31V29.196L118.739 22.5838V22.5057H113.583V20.0909H122.383V22.0582L117.368 28.5071V28.5852H122.567V31H113.398ZM127.392 31.206C126.696 31.206 126.075 31.0852 125.531 30.8438C124.986 30.5975 124.555 30.2353 124.238 29.7571C123.926 29.2741 123.769 28.6728 123.769 27.9531C123.769 27.3471 123.881 26.8381 124.103 26.4261C124.326 26.0142 124.629 25.6828 125.012 25.4318C125.396 25.1809 125.831 24.9915 126.319 24.8636C126.812 24.7358 127.328 24.6458 127.867 24.5938C128.502 24.5275 129.013 24.4659 129.402 24.4091C129.79 24.3475 130.072 24.2576 130.247 24.1392C130.422 24.0208 130.51 23.8456 130.51 23.6136V23.571C130.51 23.1212 130.367 22.7732 130.083 22.527C129.804 22.2808 129.406 22.1577 128.89 22.1577C128.346 22.1577 127.912 22.2784 127.59 22.5199C127.269 22.7566 127.055 23.0549 126.951 23.4148L124.153 23.1875C124.295 22.5246 124.574 21.9517 124.991 21.4688C125.408 20.9811 125.945 20.607 126.603 20.3466C127.266 20.0814 128.033 19.9489 128.904 19.9489C129.51 19.9489 130.09 20.0199 130.644 20.1619C131.203 20.304 131.698 20.5241 132.129 20.8224C132.564 21.1207 132.908 21.5043 133.159 21.973C133.41 22.437 133.535 22.9934 133.535 23.642V31H130.666V29.4872H130.581C130.405 29.8281 130.171 30.1288 129.877 30.3892C129.584 30.6449 129.231 30.8461 128.819 30.9929C128.407 31.1349 127.931 31.206 127.392 31.206ZM128.258 29.1179C128.703 29.1179 129.096 29.0303 129.437 28.8551C129.778 28.6752 130.046 28.4337 130.24 28.1307C130.434 27.8277 130.531 27.4844 130.531 27.1009V25.9432C130.436 26.0047 130.306 26.0616 130.14 26.1136C129.979 26.161 129.797 26.206 129.593 26.2486C129.39 26.2865 129.186 26.322 128.983 26.3551C128.779 26.3835 128.594 26.4096 128.429 26.4332C128.073 26.4853 127.763 26.5682 127.498 26.6818C127.233 26.7955 127.027 26.9493 126.88 27.1435C126.733 27.3329 126.66 27.5696 126.66 27.8537C126.66 28.2656 126.809 28.5805 127.108 28.7983C127.411 29.0114 127.794 29.1179 128.258 29.1179Z" fill="#0C0407"/>
</svg>
