<svg width="158" height="48" viewBox="0 0 158 48" fill="none" xmlns="http://www.w3.org/2000/svg">
<path d="M63.9304 16.4545V31H61.2741L54.946 21.8452H54.8395V31H51.7642V16.4545H54.4631L60.7415 25.6023H60.8693V16.4545H63.9304ZM70.786 31.2131C69.6638 31.2131 68.6979 30.9858 67.8883 30.5312C67.0834 30.072 66.4631 29.4233 66.0275 28.5852C65.5919 27.7424 65.3741 26.7457 65.3741 25.5952C65.3741 24.473 65.5919 23.4882 66.0275 22.6406C66.4631 21.7931 67.0763 21.1326 67.867 20.6591C68.6624 20.1856 69.5952 19.9489 70.6653 19.9489C71.385 19.9489 72.0549 20.0649 72.6752 20.2969C73.3002 20.5241 73.8447 20.8674 74.3087 21.3267C74.7775 21.786 75.1421 22.3636 75.4025 23.0597C75.6629 23.7509 75.7931 24.5606 75.7931 25.4886V26.3196H66.5815V24.4446H72.9451C72.9451 24.009 72.8504 23.6231 72.661 23.2869C72.4716 22.9508 72.2088 22.688 71.8727 22.4986C71.5412 22.3045 71.1553 22.2074 70.715 22.2074C70.2557 22.2074 69.8485 22.3139 69.4934 22.527C69.143 22.7353 68.8684 23.017 68.6695 23.3722C68.4707 23.7225 68.3689 24.1132 68.3641 24.544V26.3267C68.3641 26.8665 68.4636 27.3329 68.6624 27.7259C68.866 28.1188 69.1525 28.4219 69.5218 28.6349C69.8911 28.848 70.3291 28.9545 70.8357 28.9545C71.1719 28.9545 71.4797 28.9072 71.759 28.8125C72.0384 28.7178 72.2775 28.5758 72.4763 28.3864C72.6752 28.197 72.8267 27.965 72.9309 27.6903L75.7292 27.875C75.5871 28.5473 75.296 29.1345 74.8556 29.6364C74.42 30.1335 73.8566 30.5218 73.1653 30.8011C72.4787 31.0758 71.6856 31.2131 70.786 31.2131ZM86.2442 23.2017L83.4744 23.3722C83.427 23.1354 83.3252 22.9223 83.169 22.733C83.0127 22.5388 82.8067 22.3849 82.5511 22.2713C82.3001 22.1529 81.9995 22.0938 81.6491 22.0938C81.1803 22.0938 80.785 22.1932 80.463 22.392C80.141 22.5862 79.98 22.8466 79.98 23.1733C79.98 23.4337 80.0842 23.6539 80.2925 23.8338C80.5009 24.0137 80.8584 24.1581 81.365 24.267L83.3394 24.6648C84.4 24.8826 85.1907 25.233 85.7116 25.7159C86.2324 26.1989 86.4928 26.8333 86.4928 27.6193C86.4928 28.3343 86.2821 28.9616 85.8607 29.5014C85.4441 30.0412 84.8711 30.4626 84.142 30.7656C83.4175 31.0639 82.5818 31.2131 81.6349 31.2131C80.1907 31.2131 79.0402 30.9124 78.1832 30.3111C77.3309 29.705 76.8314 28.8812 76.6846 27.8395L79.6604 27.6832C79.7504 28.1236 79.9682 28.4598 80.3138 28.6918C80.6595 28.919 81.1022 29.0327 81.642 29.0327C82.1723 29.0327 82.5984 28.9309 82.9204 28.7273C83.2471 28.5189 83.4128 28.2514 83.4175 27.9247C83.4128 27.6501 83.2968 27.4252 83.0695 27.25C82.8423 27.0701 82.4919 26.9328 82.0184 26.8381L80.1292 26.4616C79.0638 26.2486 78.2708 25.8793 77.7499 25.3537C77.2338 24.8281 76.9758 24.1581 76.9758 23.3438C76.9758 22.643 77.1652 22.0393 77.544 21.5327C77.9275 21.026 78.4649 20.6354 79.1562 20.3608C79.8522 20.0862 80.6666 19.9489 81.5994 19.9489C82.9772 19.9489 84.0615 20.2401 84.8522 20.8224C85.6477 21.4048 86.1117 22.1979 86.2442 23.2017ZM93.6006 20.0909V22.3636H87.031V20.0909H93.6006ZM88.5224 17.4773H91.548V27.6477C91.548 27.9271 91.5906 28.1449 91.6759 28.3011C91.7611 28.4527 91.8795 28.5592 92.031 28.6207C92.1872 28.6823 92.3671 28.7131 92.5707 28.7131C92.7128 28.7131 92.8548 28.7012 92.9969 28.6776C93.1389 28.6491 93.2478 28.6278 93.3236 28.6136L93.7994 30.8651C93.6479 30.9124 93.4348 30.9669 93.1602 31.0284C92.8856 31.0947 92.5518 31.1349 92.1588 31.1491C91.4296 31.1776 90.7904 31.0805 90.2412 30.858C89.6967 30.6354 89.2729 30.2898 88.9699 29.821C88.6669 29.3523 88.5177 28.7604 88.5224 28.0455V17.4773ZM95.2626 31V16.4545H104.893V18.9901H98.3379V22.456H104.254V24.9915H98.3379V31H95.2626ZM109.331 16.4545V31H106.305V16.4545H109.331ZM116.083 31.2131C114.98 31.2131 114.026 30.9787 113.221 30.5099C112.421 30.0365 111.803 29.3783 111.367 28.5355C110.932 27.688 110.714 26.7055 110.714 25.5881C110.714 24.4612 110.932 23.4763 111.367 22.6335C111.803 21.786 112.421 21.1278 113.221 20.6591C114.026 20.1856 114.98 19.9489 116.083 19.9489C117.186 19.9489 118.138 20.1856 118.938 20.6591C119.743 21.1278 120.364 21.786 120.799 22.6335C121.235 23.4763 121.453 24.4612 121.453 25.5881C121.453 26.7055 121.235 27.688 120.799 28.5355C120.364 29.3783 119.743 30.0365 118.938 30.5099C118.138 30.9787 117.186 31.2131 116.083 31.2131ZM116.097 28.8693C116.599 28.8693 117.018 28.7273 117.355 28.4432C117.691 28.1544 117.944 27.7614 118.114 27.2642C118.29 26.767 118.377 26.2012 118.377 25.5668C118.377 24.9323 118.29 24.3665 118.114 23.8693C117.944 23.3722 117.691 22.9792 117.355 22.6903C117.018 22.4015 116.599 22.2571 116.097 22.2571C115.591 22.2571 115.165 22.4015 114.819 22.6903C114.478 22.9792 114.22 23.3722 114.045 23.8693C113.874 24.3665 113.789 24.9323 113.789 25.5668C113.789 26.2012 113.874 26.767 114.045 27.2642C114.22 27.7614 114.478 28.1544 114.819 28.4432C115.165 28.7273 115.591 28.8693 116.097 28.8693ZM124.698 31L121.73 20.0909H124.791L126.481 27.4205H126.581L128.342 20.0909H131.346L133.136 27.3778H133.228L134.89 20.0909H137.944L134.983 31H131.779L129.904 24.1392H129.769L127.894 31H124.698Z" fill="#0C0407"/>
<path d="M40.5005 12.5847L40.5005 8.99956L36.9154 8.99956L31.1886 14.7263L26.2618 9.79961L26.2618 19.8588C26.2618 21.7155 27.7827 23.2363 29.6394 23.2363L39.6985 23.2363L34.7718 18.3096L40.4986 12.5828L40.5005 12.5847Z" fill="#0C0407"/>
<path d="M11.3649 10.1581L7.90197 11.0861L8.82987 14.549L15.8437 18.5985L12.36 24.6325L22.0764 22.029C23.8698 21.5484 24.9452 19.6858 24.4647 17.8923L21.8612 8.17592L18.3775 14.2099L11.3636 10.1605L11.3649 10.1581Z" fill="#0C0407"/>
<path d="M38.6357 38.8429L42.0986 37.915L41.1707 34.4521L34.1569 30.4026L37.6406 24.3686L27.9242 26.9721C26.1289 27.4532 25.0554 29.3154 25.5359 31.1088L28.1394 40.8252L31.6231 34.7912L38.637 38.8406L38.6357 38.8429Z" fill="#0C0407"/>
<path d="M9.50011 36.4129L9.50011 39.998L13.0852 39.998L18.812 34.2713L23.7388 39.198L23.7388 29.1388C23.7388 27.2802 22.2179 25.7613 20.3612 25.7613L10.302 25.7613L15.2288 30.688L9.50199 36.4148L9.50011 36.4129Z" fill="#0C0407"/>
</svg>
